<svg id="Group_32" data-name="Group 32" xmlns="http://www.w3.org/2000/svg" width="86.433" height="40.457" viewBox="0 0 86.433 40.457">
  <path id="Path_19" data-name="Path 19" d="M8.542,31.449v-4.79a7.057,7.057,0,0,1-.736-.027,2.326,2.326,0,0,1-1.59-.763,2.778,2.778,0,0,1-.587-1.891V.37H0V25.955a5.329,5.329,0,0,0,1.449,4.011,5.637,5.637,0,0,0,4.1,1.407" transform="translate(0 -0.304)" fill="#fff"/>
  <g id="Group_31" data-name="Group 31" transform="translate(8.434 0)">
    <path id="Path_20" data-name="Path 20" d="M60.768,10.251h-4.7V8.7q0-3.949,2.941-3.949a6.193,6.193,0,0,1,1.575.231,7.046,7.046,0,0,1,1.492.568L63.209,1.3A12.521,12.521,0,0,0,57.789,0a6.6,6.6,0,0,0-5.377,2.4,9.929,9.929,0,0,0-1.975,6.511v1.345h-2.9v4.284h2.9V31.088h5.628V14.535h2.61A8.946,8.946,0,0,1,60.768,10.251Z" transform="translate(-47.54 0)" fill="#fff"/>
    <path id="Path_21" data-name="Path 21" d="M120.63,77.537h.937V76.59Z" transform="translate(-107.663 -63.002)" fill="#fff"/>
  </g>
  <path id="Path_22" data-name="Path 22" d="M234.166,71.545a9.072,9.072,0,0,1-4.033-.882A9.7,9.7,0,0,1,227,68.247a11.013,11.013,0,0,1-2.038-3.55,13.347,13.347,0,0,1,.041-8.738,11.56,11.56,0,0,1,2.1-3.612,9.573,9.573,0,0,1,3.234-2.436,9.725,9.725,0,0,1,4.159-.882,8.6,8.6,0,0,1,4.5,1.155,9.753,9.753,0,0,1,3.193,3.087V49.406H247.1V70.369a10.02,10.02,0,0,1-.924,4.37,9.572,9.572,0,0,1-2.542,3.277,11.338,11.338,0,0,1-3.866,2.058,16.109,16.109,0,0,1-4.895.715,13.8,13.8,0,0,1-6.071-1.2,12.315,12.315,0,0,1-4.222-3.381l3.067-2.982a8.7,8.7,0,0,0,3.172,2.436,9.544,9.544,0,0,0,4.054.882,8.715,8.715,0,0,0,2.5-.357,6.018,6.018,0,0,0,2.122-1.114,5.191,5.191,0,0,0,1.449-1.932,6.766,6.766,0,0,0,.525-2.773V67.6a7.445,7.445,0,0,1-3.067,2.92A9.026,9.026,0,0,1,234.166,71.545Zm1.889-4.5a5.29,5.29,0,0,0,1.765-.295,6.293,6.293,0,0,0,2.814-1.975,5.338,5.338,0,0,0,.841-1.428V58.1a6.828,6.828,0,0,0-2.374-3.108,5.668,5.668,0,0,0-3.381-1.176,4.872,4.872,0,0,0-2.353.568,5.845,5.845,0,0,0-1.806,1.512,6.847,6.847,0,0,0-1.155,2.163,8.051,8.051,0,0,0-.4,2.521,6.858,6.858,0,0,0,.461,2.521,6.46,6.46,0,0,0,1.281,2.058,6.017,6.017,0,0,0,1.911,1.386A5.638,5.638,0,0,0,236.055,67.05Z" transform="translate(-184.465 -40.332)" fill="#ef0061"/>
  <path id="Path_23" data-name="Path 23" d="M368.286,71.545a9.072,9.072,0,0,1-4.033-.882,9.7,9.7,0,0,1-3.13-2.416,11.013,11.013,0,0,1-2.038-3.55,13.347,13.347,0,0,1,.041-8.738,11.561,11.561,0,0,1,2.1-3.612,9.573,9.573,0,0,1,3.234-2.436,9.724,9.724,0,0,1,4.159-.882,8.6,8.6,0,0,1,4.5,1.155,9.753,9.753,0,0,1,3.193,3.087V49.406h4.916V70.369a10.02,10.02,0,0,1-.924,4.37,9.571,9.571,0,0,1-2.542,3.277,11.337,11.337,0,0,1-3.866,2.058,16.109,16.109,0,0,1-4.895.715,13.8,13.8,0,0,1-6.071-1.2A12.315,12.315,0,0,1,358.7,76.21l3.067-2.982a8.7,8.7,0,0,0,3.172,2.436,9.544,9.544,0,0,0,4.054.882,8.716,8.716,0,0,0,2.5-.357,6.018,6.018,0,0,0,2.122-1.114,5.191,5.191,0,0,0,1.449-1.932,6.766,6.766,0,0,0,.525-2.773V67.6a7.445,7.445,0,0,1-3.067,2.92A9.015,9.015,0,0,1,368.286,71.545Zm1.891-4.5a5.289,5.289,0,0,0,1.765-.295,6.293,6.293,0,0,0,2.814-1.975,5.339,5.339,0,0,0,.841-1.428V58.1a6.828,6.828,0,0,0-2.374-3.108,5.668,5.668,0,0,0-3.382-1.176,4.872,4.872,0,0,0-2.352.568,5.846,5.846,0,0,0-1.806,1.512,6.848,6.848,0,0,0-1.155,2.163,8.051,8.051,0,0,0-.4,2.521,6.858,6.858,0,0,0,.461,2.521,6.46,6.46,0,0,0,1.281,2.058,6.017,6.017,0,0,0,1.911,1.386A5.626,5.626,0,0,0,370.177,67.05Z" transform="translate(-294.791 -40.332)" fill="#ef0061"/>
  <path id="Path_24" data-name="Path 24" d="M122.626,71.632a17.061,17.061,0,0,1-5.42-.882,13.205,13.205,0,0,1-4.536-2.521l2.1-3.529a18.045,18.045,0,0,0,3.928,2.164,10.54,10.54,0,0,0,3.8.734,4.809,4.809,0,0,0,2.647-.63,2.03,2.03,0,0,0,.967-1.806,1.8,1.8,0,0,0-1.134-1.723,24.467,24.467,0,0,0-3.7-1.26q-2.142-.588-3.655-1.134a9.389,9.389,0,0,1-2.436-1.238,4.248,4.248,0,0,1-1.345-1.6,5.092,5.092,0,0,1-.42-2.164,6.844,6.844,0,0,1,.651-3.025,6.615,6.615,0,0,1,1.827-2.29,8.485,8.485,0,0,1,2.752-1.449,11.2,11.2,0,0,1,3.424-.5,14.7,14.7,0,0,1,4.643.715,11.358,11.358,0,0,1,3.97,2.31l-2.269,3.4a13.175,13.175,0,0,0-3.256-1.849,8.9,8.9,0,0,0-3.13-.589,4.53,4.53,0,0,0-2.4.589,2.047,2.047,0,0,0-.967,1.891,1.827,1.827,0,0,0,.231.967,2.035,2.035,0,0,0,.734.672,7.13,7.13,0,0,0,1.324.568q.82.274,2.037.568,2.267.588,3.885,1.176a10.59,10.59,0,0,1,2.647,1.345,4.769,4.769,0,0,1,1.512,1.744,5.369,5.369,0,0,1,.483,2.374,6.123,6.123,0,0,1-2.4,5.1A10.329,10.329,0,0,1,122.626,71.632Z" transform="translate(-92.681 -40.126)" fill="#fff"/>
</svg>
