<svg xmlns="http://www.w3.org/2000/svg" width="16.145" height="18.451" viewBox="0 0 16.145 18.451">
  <path id="bell-solid" d="M8.072,18.451a2.306,2.306,0,0,0,2.305-2.306H5.766A2.306,2.306,0,0,0,8.072,18.451Zm7.762-5.4c-.7-.748-2-1.874-2-5.56A5.691,5.691,0,0,0,9.224,1.9V1.153a1.152,1.152,0,1,0-2.3,0V1.9A5.691,5.691,0,0,0,2.309,7.5c0,3.687-1.3,4.812-2,5.56a1.126,1.126,0,0,0-.31.782,1.154,1.154,0,0,0,1.157,1.153H14.987a1.154,1.154,0,0,0,1.157-1.153A1.125,1.125,0,0,0,15.834,13.056Z" transform="translate(0.001)" fill="#ef0061"/>
</svg>
