<svg xmlns="http://www.w3.org/2000/svg" width="16.162" height="16.883" viewBox="0 0 16.162 16.883">
  <path id="cog-solid" d="M34.6,18.569l-1.45-.837a6.556,6.556,0,0,0,0-2.389l1.45-.837a.411.411,0,0,0,.187-.477,8.477,8.477,0,0,0-1.862-3.22.41.41,0,0,0-.5-.078l-1.45.837A6.424,6.424,0,0,0,28.9,10.373V8.7a.408.408,0,0,0-.32-.4,8.557,8.557,0,0,0-3.717,0,.408.408,0,0,0-.32.4v1.675a6.626,6.626,0,0,0-2.069,1.195l-1.447-.837a.4.4,0,0,0-.5.078,8.426,8.426,0,0,0-1.862,3.22.407.407,0,0,0,.187.477l1.45.837a6.556,6.556,0,0,0,0,2.389l-1.45.837a.411.411,0,0,0-.187.477,8.477,8.477,0,0,0,1.862,3.22.41.41,0,0,0,.5.078l1.45-.837A6.424,6.424,0,0,0,24.548,22.7v1.675a.408.408,0,0,0,.32.4,8.557,8.557,0,0,0,3.717,0,.408.408,0,0,0,.32-.4V22.7a6.626,6.626,0,0,0,2.069-1.195l1.45.837a.4.4,0,0,0,.5-.078,8.426,8.426,0,0,0,1.862-3.22A.42.42,0,0,0,34.6,18.569Zm-7.876.691a2.723,2.723,0,1,1,2.723-2.723A2.727,2.727,0,0,1,26.723,19.26Z" transform="translate(-18.644 -8.099)" fill="#ef0061"/>
</svg>
