<svg xmlns="http://www.w3.org/2000/svg" width="23.212" height="18.05" viewBox="0 0 23.212 18.05">
  <path id="home-solid" d="M11.283,36.733,3.854,42.851v6.6A.645.645,0,0,0,4.5,50.1l4.515-.012a.645.645,0,0,0,.641-.645V45.587a.645.645,0,0,1,.645-.645h2.579a.645.645,0,0,1,.645.645v3.854a.645.645,0,0,0,.645.647l4.514.012a.645.645,0,0,0,.645-.645V42.847L11.9,36.733a.491.491,0,0,0-.617,0Zm11.735,4.159-3.369-2.777V32.534a.484.484,0,0,0-.484-.484H16.909a.484.484,0,0,0-.484.484v2.926l-3.608-2.968a1.934,1.934,0,0,0-2.458,0l-10.2,8.4a.484.484,0,0,0-.064.681l1.028,1.249a.484.484,0,0,0,.681.066l9.478-7.807a.491.491,0,0,1,.617,0l9.479,7.807a.484.484,0,0,0,.681-.064l1.028-1.249a.484.484,0,0,0-.069-.682Z" transform="translate(0.015 -32.05)" fill="#fff"/>
</svg>
