<svg xmlns="http://www.w3.org/2000/svg" width="14.236" height="17.638" viewBox="0 0 14.236 17.638">
  <g id="padlock" transform="translate(-11.077)">
    <path id="Path_34" data-name="Path 34" d="M24.4,7.65A6.7,6.7,0,0,0,24.5,6.5,6.411,6.411,0,0,0,18.2,0a6.411,6.411,0,0,0-6.308,6.5,6.691,6.691,0,0,0,.1,1.154,1.966,1.966,0,0,0-.912,1.66v6.359a1.969,1.969,0,0,0,1.969,1.969h10.3a1.969,1.969,0,0,0,1.969-1.969h0V9.31A1.966,1.966,0,0,0,24.4,7.65ZM19.064,13.2v1.382a.869.869,0,1,1-1.738,0V13.2a1.805,1.805,0,1,1,1.738,0ZM22.1,7.34H14.287a4.376,4.376,0,0,1-.082-.844A4.092,4.092,0,0,1,18.2,2.318,4.091,4.091,0,0,1,22.185,6.5,4.364,4.364,0,0,1,22.1,7.34Z" transform="translate(0 0)" fill="#ef0061"/>
  </g>
</svg>
