<svg xmlns="http://www.w3.org/2000/svg" width="17.253" height="17.254" viewBox="0 0 17.253 17.254">
  <g id="swords-crossed" transform="translate(-55.269 -55.619)">
    <path id="Path_31" data-name="Path 31" d="M61.691,272.633l1.783-1.783-2.68-2.68-1.783,1.783-.826-.826a.569.569,0,0,0-.8,0l-.554.554a.569.569,0,0,0,0,.8l.97,1.82L55.8,274.3a.569.569,0,0,0,0,.8l.742.742a.569.569,0,0,0,.8,0l2.013-2.013,1.781.968a.569.569,0,0,0,.8,0l.554-.554a.569.569,0,0,0,0-.8Z" transform="translate(-0.35 -203.142)" fill="#ef0061"/>
    <path id="Path_32" data-name="Path 32" d="M275.226,58.92l-4.553,4.554L268,60.8l4.566-4.565a.538.538,0,0,1,.278-.148l2.377-.46a.5.5,0,0,1,.591.582l-.426,2.4A.579.579,0,0,1,275.226,58.92Z" transform="translate(-203.314 0)" fill="#ef0061"/>
    <path id="Path_33" data-name="Path 33" d="M72.356,71.479l-2.013-2.013.968-1.781a.569.569,0,0,0,0-.8l-.554-.554a.569.569,0,0,0-.8,0l-.81.81-1.783-1.783h0l-4.235-4.235h0L58.57,56.565a.579.579,0,0,0-.308-.16l-2.4-.426a.5.5,0,0,0-.582.591l.46,2.377a.538.538,0,0,0,.148.278l4.565,4.565h0l4.236,4.235-.008.008,1.783,1.783-.826.826a.569.569,0,0,0,0,.8L66.19,72a.569.569,0,0,0,.8,0l1.82-.97,1.994,1.994a.569.569,0,0,0,.8,0l.742-.742A.57.57,0,0,0,72.356,71.479Z" transform="translate(0 -0.337)" fill="#ef0061"/>
  </g>
</svg>
