<svg xmlns="http://www.w3.org/2000/svg" xmlns:xlink="http://www.w3.org/1999/xlink" width="17.836" height="17.836" viewBox="0 0 17.836 17.836">
  <defs>
    <clipPath id="clip-path">
      <rect width="17.836" height="17.836" fill="none"/>
    </clipPath>
  </defs>
  <g id="swords-crossed" clip-path="url(#clip-path)">
    <g id="swords-crossed-2" data-name="swords-crossed" transform="translate(-55.269 -55.619)">
      <path id="Path_31" data-name="Path 31" d="M61.895,272.784l1.843-1.843-2.771-2.771-1.843,1.843-.854-.854a.588.588,0,0,0-.832,0l-.573.573a.588.588,0,0,0,0,.832l1,1.881-2.061,2.062a.588.588,0,0,0,0,.832l.767.767a.588.588,0,0,0,.832,0l2.08-2.081,1.842,1a.588.588,0,0,0,.832,0l.573-.573a.588.588,0,0,0,0-.832Z" transform="translate(-0.35 -202.824)" fill="#fff"/>
      <path id="Path_32" data-name="Path 32" d="M275.47,59.031l-4.707,4.707L268,60.976l4.72-4.719a.556.556,0,0,1,.288-.153l2.457-.475a.521.521,0,0,1,.611.6l-.44,2.483A.6.6,0,0,1,275.47,59.031Z" transform="translate(-202.996 0)" fill="#fff"/>
      <path id="Path_33" data-name="Path 33" d="M72.933,72l-2.08-2.08,1-1.842a.588.588,0,0,0,0-.832l-.573-.573a.588.588,0,0,0-.832,0l-.838.838L67.767,65.67h0l-4.378-4.378h0l-4.707-4.706a.6.6,0,0,0-.318-.166l-2.483-.44a.521.521,0,0,0-.6.611l.475,2.457a.556.556,0,0,0,.153.288l4.719,4.719h0L65,68.433,65,68.441l1.843,1.843-.854.854a.588.588,0,0,0,0,.832l.573.573a.588.588,0,0,0,.832,0l1.881-1L71.334,73.6a.588.588,0,0,0,.832,0l.767-.767A.589.589,0,0,0,72.933,72Z" transform="translate(0 -0.336)" fill="#fff"/>
    </g>
  </g>
</svg>
