<svg xmlns="http://www.w3.org/2000/svg" width="16.956" height="13.566" viewBox="0 0 16.956 13.566">
  <path id="user-edit-solid" d="M5.935,6.783A3.391,3.391,0,1,0,2.544,3.391,3.391,3.391,0,0,0,5.935,6.783Zm2.374.848H7.866A4.612,4.612,0,0,1,4,7.631H3.561A3.562,3.562,0,0,0,0,11.192v1.1a1.272,1.272,0,0,0,1.272,1.272H8.555A1.272,1.272,0,0,1,8.486,13l.18-1.614.032-.294.209-.209,2.048-2.048A3.525,3.525,0,0,0,8.309,7.631Zm1.2,3.85L9.329,13.1a.422.422,0,0,0,.466.466l1.614-.18,3.654-3.654-1.9-1.9Zm7.262-4.356-1-1a.635.635,0,0,0-.9,0l-1,1-.109.109,1.9,1.9,1.108-1.108A.638.638,0,0,0,16.772,7.125Z" fill="#ef0061"/>
</svg>
