<svg xmlns="http://www.w3.org/2000/svg" width="25.769" height="18.039" viewBox="0 0 25.769 18.039">
  <path id="users-solid" d="M3.865,39.731a2.577,2.577,0,1,0-2.577-2.577A2.579,2.579,0,0,0,3.865,39.731Zm18.039,0a2.577,2.577,0,1,0-2.577-2.577A2.579,2.579,0,0,0,21.9,39.731Zm1.288,1.288H20.615a2.569,2.569,0,0,0-1.816.749,5.89,5.89,0,0,1,3.024,4.4h2.657a1.287,1.287,0,0,0,1.288-1.288V43.6A2.579,2.579,0,0,0,23.192,41.019Zm-10.308,0a4.51,4.51,0,1,0-4.51-4.51A4.507,4.507,0,0,0,12.885,41.019Zm3.092,1.288h-.334a6.226,6.226,0,0,1-5.516,0H9.792a4.64,4.64,0,0,0-4.638,4.638v1.16a1.933,1.933,0,0,0,1.933,1.933h11.6a1.933,1.933,0,0,0,1.933-1.933v-1.16A4.64,4.64,0,0,0,15.977,42.308Zm-9.007-.54a2.569,2.569,0,0,0-1.816-.749H2.577A2.579,2.579,0,0,0,0,43.6v1.288a1.287,1.287,0,0,0,1.288,1.288H3.942a5.9,5.9,0,0,1,3.028-4.4Z" transform="translate(0 -32)" fill="#fff"/>
</svg>
