<svg id="Group_9" data-name="Group 9" xmlns="http://www.w3.org/2000/svg" width="89" height="89" viewBox="0 0 89 89">
  <rect id="Rectangle_10" data-name="Rectangle 10" width="62.933" height="62.933" rx="10" transform="translate(0 44.5) rotate(-45)" fill="#e8af11"/>
  <path id="Path_12" data-name="Path 12" d="M12.14,0h1.089a10.2,10.2,0,0,1,2.153,1.174,4.989,4.989,0,0,1,.269,2.765,3.561,3.561,0,0,1-.979.514c.037.355.1.71.147,1.052.624-.049,1.223-.22,1.847-.33A2.779,2.779,0,0,1,17.009,4.1c.049.245.086.5.122.746a1.724,1.724,0,0,0,1.052.416c2.569,0,5.138-.012,7.708,0,.281-.024.416.281.612.428,0-.551,0-1.089.024-1.639h.306a5.74,5.74,0,0,0,.1,1.444c.147.037.294.037.44.061.012.184.012.379.024.563a11.825,11.825,0,0,0,2.373-.061,9.865,9.865,0,0,1,1.59-.024,4.647,4.647,0,0,0,.061.563,8.158,8.158,0,0,1-1.97-.012c-1.04-.122-2.092.1-3.132.037-.037.147-.073.281-.1.428-1,.012-2.006,0-3.01,0a1.042,1.042,0,0,0-.905.343c-.294.367-.648.685-.942,1.064a5.684,5.684,0,0,0,.33,2.019c-.232.086-.477.171-.71.257-.245.746-.147,1.7-.832,2.227a7.61,7.61,0,0,1-1.138.844c-.318.147-.648-.012-.967-.049a12.062,12.062,0,0,1-3.205-1.407l-.22.844c.318.208.734.379.832.783a6.07,6.07,0,0,1,0,1.823c-.049.551-.061,1.113-.122,1.664a2.856,2.856,0,0,1-.685,1.419c-.306-.073-.587-.159-.893-.232a1.861,1.861,0,0,0,.477,2.043,15.536,15.536,0,0,1,2.8,5.273c.122.391.526.624.587,1.04a4.219,4.219,0,0,1,.245,1.346c-.049.807-.11,1.627-.2,2.435a5.5,5.5,0,0,0-.147,1.786,2.648,2.648,0,0,1-.024,1.48,4.973,4.973,0,0,0-.245,1.9,1.842,1.842,0,0,0,.33,1.211,9.479,9.479,0,0,0,1.089,1.223c.514.33,1.211.343,1.627.82a1.84,1.84,0,0,1,.037.856,8.842,8.842,0,0,1-4-.2c-.722-.232-1.529.171-2.227-.232a8.256,8.256,0,0,1,.526-2.422,7.725,7.725,0,0,0-.024-1.762A8.615,8.615,0,0,0,14.244,34a14.848,14.848,0,0,1-.416-3.205c-.061-.526.391-.93.4-1.444a1.6,1.6,0,0,0-.257-1.309c-.489-.012-1.162.11-1.431-.416-.575-.856-1.138-1.725-1.713-2.569-.2-.367-.685-.281-1.015-.44a3.542,3.542,0,0,1-.624-1A2.425,2.425,0,0,1,8.641,24.7a4.875,4.875,0,0,0-.869,1.7,5.616,5.616,0,0,0-.379,1.321c-.061.343-.086.746-.391.967-.453.343-.612.918-1.028,1.3a2.271,2.271,0,0,0-.6,1.1,6.593,6.593,0,0,1-.024,1.1,14.081,14.081,0,0,1-.807,1.884c-.2.44-.294.918-.5,1.346-.135.306-.5.4-.7.648a4.87,4.87,0,0,0-.551,3.254,2.519,2.519,0,0,1,.184,1.37c-.343.049-.7.11-1.04.135H.884a3.233,3.233,0,0,1-.832-.232,3.21,3.21,0,0,1,.012-1.86c.257-.905.489-1.823.71-2.728.159-.44-.208-.844-.184-1.3a3.416,3.416,0,0,1,.661-1.75c.281-.489.184-1.077.367-1.59.428-1.113,1.26-2.031,1.75-3.12a5.134,5.134,0,0,0,.012-1.37A20.457,20.457,0,0,1,3.735,24.3a1.864,1.864,0,0,0,.024-1,2.737,2.737,0,0,1-.184-1.211c.061-.379-.171-.759-.024-1.126.073-.318.367-.489.6-.685.037-1.3-.428-2.557-.232-3.854a2.239,2.239,0,0,1,.905-.526L3.441,15.6A5.9,5.9,0,0,1,3.6,14.057c.171-.8.073-1.615.208-2.41.024-.208.245-.269.416-.281a8.475,8.475,0,0,0,1.248-.147,9.094,9.094,0,0,1,0-3.046,4.885,4.885,0,0,1,1.75-3.12,2.071,2.071,0,0,1,2.386-.184c.061-.037.171-.122.232-.159a3.811,3.811,0,0,1,.343-3.426A3.617,3.617,0,0,1,12.14,0m6.717,7.72a.823.823,0,0,1-.416.722,8.551,8.551,0,0,0,1.126-.1c-.012-.22-.012-.428-.024-.648-.232,0-.453.012-.685.024m-.771.832a1.384,1.384,0,0,0-.122.159,3.27,3.27,0,0,0,.551,1.064c.294-.4.587-.807.856-1.223a7.507,7.507,0,0,0-1.285,0Z" transform="translate(32.74 23.75)"/>
</svg>
