<svg id="Group_11" data-name="Group 11" xmlns="http://www.w3.org/2000/svg" width="89" height="89" viewBox="0 0 89 89">
  <rect id="Rectangle_7" data-name="Rectangle 7" width="62.933" height="62.933" rx="10" transform="translate(0 44.5) rotate(-45)" fill="#1a1a1a"/>
  <path id="League_of_legends" data-name="League of legends" d="M6.87,4l4.311,7V34.058l-4.594,7.03H33.516l7.054-9.272H22V4ZM12.4,7.091h6.506V34.906H34.334L31.985,38H12.3l1.969-3.015V10.13l-.229-.371L12.4,7.091Zm12.687.3V10.54A13.882,13.882,0,0,1,35.106,28.725h3.242A16.969,16.969,0,0,0,25.09,7.386Zm-17,6.96a16.887,16.887,0,0,0,0,19.486V14.346Z" transform="translate(22.86 21.956)" fill="#c99609"/>
</svg>
