<svg id="Group_8" data-name="Group 8" xmlns="http://www.w3.org/2000/svg" width="89" height="89" viewBox="0 0 89 89">
  <rect id="Rectangle_13" data-name="Rectangle 13" width="62.933" height="62.933" rx="10" transform="translate(0 44.5) rotate(-45)"/>
  <path id="Path_11" data-name="Path 11" d="M20.708,12.251V6.864S20.685-.343,10.5.067c0,0-9.687-.82-10.461,6.8V35.288s-.456,6.8,10.041,6.567c0,0,9.442,1.138,10.631-6.341V17.449s-.733-3.7-7.166-3.7c0,0-4.424-.092-4.65,1.323l-.046-7.12A2.182,2.182,0,0,1,12.09,8l-.046,4.244h8.664ZM9.62,22.2c.585,1.7,3.35.184,3.35.184,2.419-1.654,3.461-.171,3.461-.171v3.244a10.183,10.183,0,0,0-4.318.779v3.548a2.685,2.685,0,0,0-2.493.77v6.788H9.344v.286H7.265v-.258H6.574v-.7h.263V23.61l-.009-.18H6.579V22.9h.249v-.479h.512V22.2Z" transform="translate(34.871 24.312)" fill="#fff"/>
</svg>
