<svg xmlns="http://www.w3.org/2000/svg" width="73.927" height="73.927" viewBox="0 0 73.927 73.927">
  <g id="Group_1" data-name="Group 1" transform="translate(0.003 0.024)">
    <path id="Path_3" data-name="Path 3" d="M27.262,49.93l3.957-3.957a4.224,4.224,0,0,0,1.126.231,4.621,4.621,0,1,0-4.621-4.621,4.224,4.224,0,0,0,.231,1.126L24,46.667,7.131,29.8a2.29,2.29,0,0,0-3.61.433A29.647,29.647,0,0,0,43.667,70.379a2.274,2.274,0,0,0,.433-3.61ZM30.179-.021A2.324,2.324,0,0,0,27.724,2.29V6.853a2.287,2.287,0,0,0,2.166,2.3A37.089,37.089,0,0,1,64.679,44.024a2.307,2.307,0,0,0,2.3,2.166H71.61a2.324,2.324,0,0,0,2.311-2.455A46.322,46.322,0,0,0,30.179-.021Zm.043,13.863a2.33,2.33,0,0,0-2.5,2.325V20.8a2.3,2.3,0,0,0,2.137,2.3A23.066,23.066,0,0,1,50.786,44.067a2.321,2.321,0,0,0,2.3,2.123h4.65a2.338,2.338,0,0,0,2.325-2.5A32.492,32.492,0,0,0,30.222,13.843Z" transform="translate(0 0)" fill="#031b4d"/>
    <path id="Path_4" data-name="Path 4" d="M194.455.079A2.324,2.324,0,0,0,192,2.39V6.953a2.287,2.287,0,0,0,2.166,2.3,37.089,37.089,0,0,1,34.788,34.875,2.307,2.307,0,0,0,2.3,2.166h4.636a2.324,2.324,0,0,0,2.311-2.455A46.322,46.322,0,0,0,194.455.079Zm.043,13.863a2.33,2.33,0,0,0-2.5,2.325V20.9a2.3,2.3,0,0,0,2.137,2.3,23.066,23.066,0,0,1,20.925,20.968,2.321,2.321,0,0,0,2.3,2.123h4.65a2.338,2.338,0,0,0,2.325-2.5A32.492,32.492,0,0,0,194.5,13.943Z" transform="translate(-164.276 -0.086)" fill="#ff0057"/>
  </g>
</svg>
