<svg id="Group_3" data-name="Group 3" xmlns="http://www.w3.org/2000/svg" width="65.22" height="74.537" viewBox="0 0 65.22 74.537">
  <path id="Path_7" data-name="Path 7" d="M0,67.549a6.99,6.99,0,0,0,6.988,6.988H58.232a6.99,6.99,0,0,0,6.988-6.988v-39.6H0ZM9.317,39.6a2.336,2.336,0,0,1,2.329-2.329H53.573A2.336,2.336,0,0,1,55.9,39.6v9.317a2.336,2.336,0,0,1-2.329,2.329H11.646a2.336,2.336,0,0,1-2.329-2.329ZM58.232,9.317H51.244V2.329A2.336,2.336,0,0,0,48.915,0H44.256a2.336,2.336,0,0,0-2.329,2.329V9.317H23.293V2.329A2.336,2.336,0,0,0,20.963,0H16.3a2.336,2.336,0,0,0-2.329,2.329V9.317H6.988A6.99,6.99,0,0,0,0,16.3v6.988H65.22V16.3A6.99,6.99,0,0,0,58.232,9.317Z" fill="#031b4d"/>
  <path id="Path_8" data-name="Path 8" d="M58.232,10.317H51.244V3.329A2.336,2.336,0,0,0,48.915,1H44.256a2.336,2.336,0,0,0-2.329,2.329v6.988H23.293V3.329A2.336,2.336,0,0,0,20.963,1H16.3a2.336,2.336,0,0,0-2.329,2.329v6.988H6.988A6.99,6.99,0,0,0,0,17.3v6.988H65.22V17.3A6.99,6.99,0,0,0,58.232,10.317Z" transform="translate(0 -0.854)" fill="#ff0057"/>
</svg>
