<svg id="Group_2" data-name="Group 2" xmlns="http://www.w3.org/2000/svg" width="74.286" height="52" viewBox="0 0 74.286 52">
  <path id="Path_5" data-name="Path 5" d="M11.143,22.286a7.429,7.429,0,1,0-7.429-7.429A7.435,7.435,0,0,0,11.143,22.286Zm52,0a7.429,7.429,0,1,0-7.429-7.429A7.435,7.435,0,0,0,63.143,22.286ZM66.857,26H59.429a7.407,7.407,0,0,0-5.235,2.159,16.978,16.978,0,0,1,8.717,12.7h7.661a3.71,3.71,0,0,0,3.714-3.714V33.429A7.435,7.435,0,0,0,66.857,26ZM37.143,26a13,13,0,1,0-13-13A12.993,12.993,0,0,0,37.143,26Zm8.914,3.714h-.963a17.948,17.948,0,0,1-15.9,0h-.963A13.375,13.375,0,0,0,14.857,43.086v3.343A5.573,5.573,0,0,0,20.429,52H53.857a5.573,5.573,0,0,0,5.571-5.571V43.086A13.375,13.375,0,0,0,46.057,29.714ZM20.092,28.159A7.407,7.407,0,0,0,14.857,26H7.429A7.435,7.435,0,0,0,0,33.429v3.714a3.71,3.71,0,0,0,3.714,3.714h7.649a17.021,17.021,0,0,1,8.729-12.7Z" fill="#031b4d"/>
  <path id="Path_6" data-name="Path 6" d="M11.143,79.857a7.429,7.429,0,1,0-7.429-7.429A7.435,7.435,0,0,0,11.143,79.857Zm52,0a7.429,7.429,0,1,0-7.429-7.429A7.435,7.435,0,0,0,63.143,79.857Zm3.714,3.714H59.429a7.407,7.407,0,0,0-5.235,2.159,16.978,16.978,0,0,1,8.717,12.7h7.661a3.71,3.71,0,0,0,3.714-3.714V91A7.435,7.435,0,0,0,66.857,83.571ZM20.092,85.73a7.407,7.407,0,0,0-5.235-2.159H7.429A7.435,7.435,0,0,0,0,91v3.714a3.71,3.71,0,0,0,3.714,3.714h7.649a17.021,17.021,0,0,1,8.729-12.7Z" transform="translate(0 -57.455)" fill="#ff0057"/>
</svg>
