<svg xmlns="http://www.w3.org/2000/svg" width="73.963" height="73.975" viewBox="0 0 73.963 73.975">
  <g id="Symbol_1_1" data-name="Symbol 1 – 1" transform="translate(-1001 -1070.037)">
    <path id="search-solid_1_" data-name="search-solid (1)" d="M72.957,63.956l-14.4-14.4A3.465,3.465,0,0,0,56.1,48.541H53.742a30.036,30.036,0,1,0-5.2,5.2V56.1a3.465,3.465,0,0,0,1.011,2.456l14.4,14.4a3.453,3.453,0,0,0,4.9,0l4.088-4.088A3.483,3.483,0,0,0,72.957,63.956ZM30.049,48.541A18.492,18.492,0,1,1,48.541,30.049,18.481,18.481,0,0,1,30.049,48.541Z" transform="translate(1001 1070.037)" fill="#031b4d"/>
    <path id="user-solid_1_" data-name="user-solid (1)" d="M9.322,10.654A5.327,5.327,0,1,0,4,5.327,5.326,5.326,0,0,0,9.322,10.654Zm3.729,1.332h-.695a7.244,7.244,0,0,1-6.068,0H5.593A5.6,5.6,0,0,0,0,17.579V19.31a2,2,0,0,0,2,2H16.647a2,2,0,0,0,2-2V17.579A5.6,5.6,0,0,0,13.051,11.986Z" transform="translate(1021.678 1089.346)" fill="#ff0057"/>
  </g>
</svg>
