<svg xmlns="http://www.w3.org/2000/svg" width="20.045" height="15.984" viewBox="0 0 20.045 15.984">
  <path id="cogs-solid" d="M16.032,6.092l-.257.448a.387.387,0,0,1-.473.169A3.461,3.461,0,0,1,14.3,6.126a.389.389,0,0,1-.088-.492l.257-.448a2.7,2.7,0,0,1-.5-.858h-.517a.387.387,0,0,1-.382-.323,3.529,3.529,0,0,1,0-1.162.389.389,0,0,1,.382-.326h.517a2.7,2.7,0,0,1,.5-.858l-.257-.448A.385.385,0,0,1,14.3.72,3.5,3.5,0,0,1,15.3.137a.387.387,0,0,1,.473.169l.257.448a2.783,2.783,0,0,1,.993,0l.257-.448a.387.387,0,0,1,.473-.169A3.461,3.461,0,0,1,18.76.72a.389.389,0,0,1,.088.492l-.257.448a2.7,2.7,0,0,1,.5.858h.517a.387.387,0,0,1,.382.323,3.529,3.529,0,0,1,0,1.162.389.389,0,0,1-.382.326h-.517a2.7,2.7,0,0,1-.5.858l.257.448a.385.385,0,0,1-.088.492,3.5,3.5,0,0,1-1.005.583.387.387,0,0,1-.473-.169l-.257-.448A2.783,2.783,0,0,1,16.032,6.092ZM15.7,4.25A1.17,1.17,0,0,0,17.357,2.6,1.17,1.17,0,0,0,15.7,4.25ZM12.091,9.07l1.056.526a.753.753,0,0,1,.329.912,7.4,7.4,0,0,1-1.334,2.061.749.749,0,0,1-.949.166l-.912-.526a5.381,5.381,0,0,1-1.72.993v1.052a.75.75,0,0,1-.617.739,7.044,7.044,0,0,1-2.377,0,.753.753,0,0,1-.626-.739V13.2a5.44,5.44,0,0,1-1.72-.993l-.912.523a.749.749,0,0,1-.949-.166A7.384,7.384,0,0,1,.038,10.508.756.756,0,0,1,.367,9.6L1.41,9.07a5.426,5.426,0,0,1,0-1.986L.367,6.555a.747.747,0,0,1-.329-.908A7.354,7.354,0,0,1,1.36,3.586a.749.749,0,0,1,.949-.166l.912.526a5.381,5.381,0,0,1,1.72-.993V1.9a.746.746,0,0,1,.614-.736,7.143,7.143,0,0,1,2.381,0,.753.753,0,0,1,.626.739V2.95a5.44,5.44,0,0,1,1.72.993l.912-.526a.749.749,0,0,1,.949.166A7.344,7.344,0,0,1,13.46,5.644a.749.749,0,0,1-.313.912l-1.056.526A5.443,5.443,0,0,1,12.091,9.07Zm-3.684.661A2.343,2.343,0,0,0,5.1,6.421,2.343,2.343,0,0,0,8.408,9.731Zm7.624,5.723-.257.448a.387.387,0,0,1-.473.169,3.461,3.461,0,0,1-1.005-.583A.389.389,0,0,1,14.209,15l.257-.448a2.7,2.7,0,0,1-.5-.858h-.517a.387.387,0,0,1-.382-.323,3.529,3.529,0,0,1,0-1.162.389.389,0,0,1,.382-.326h.517a2.7,2.7,0,0,1,.5-.858l-.257-.448a.385.385,0,0,1,.088-.492A3.5,3.5,0,0,1,15.3,9.5a.387.387,0,0,1,.473.169l.257.448a2.783,2.783,0,0,1,.993,0l.257-.448a.387.387,0,0,1,.473-.169,3.461,3.461,0,0,1,1.005.583.389.389,0,0,1,.088.492l-.257.448a2.7,2.7,0,0,1,.5.858h.517a.387.387,0,0,1,.382.323,3.529,3.529,0,0,1,0,1.162.389.389,0,0,1-.382.326h-.517a2.7,2.7,0,0,1-.5.858l.257.448a.385.385,0,0,1-.088.492,3.5,3.5,0,0,1-1.005.583.387.387,0,0,1-.473-.169l-.257-.448A2.783,2.783,0,0,1,16.032,15.454ZM15.7,13.609a1.17,1.17,0,0,0,1.654-1.654A1.17,1.17,0,0,0,15.7,13.609Z" transform="translate(0.009 -0.112)" fill="#ef0061"/>
</svg>
