<svg xmlns="http://www.w3.org/2000/svg" width="16.982" height="19.408" viewBox="0 0 16.982 19.408">
  <path id="calendar-alt-regular" d="M5.61,10.917H4.094a.456.456,0,0,1-.455-.455V8.946a.456.456,0,0,1,.455-.455H5.61a.456.456,0,0,1,.455.455v1.516A.456.456,0,0,1,5.61,10.917ZM9.7,10.462V8.946a.456.456,0,0,0-.455-.455H7.733a.456.456,0,0,0-.455.455v1.516a.456.456,0,0,0,.455.455H9.249A.456.456,0,0,0,9.7,10.462Zm3.639,0V8.946a.456.456,0,0,0-.455-.455H11.372a.456.456,0,0,0-.455.455v1.516a.456.456,0,0,0,.455.455h1.516A.456.456,0,0,0,13.343,10.462ZM9.7,14.1V12.585a.456.456,0,0,0-.455-.455H7.733a.456.456,0,0,0-.455.455V14.1a.456.456,0,0,0,.455.455H9.249A.456.456,0,0,0,9.7,14.1Zm-3.639,0V12.585a.456.456,0,0,0-.455-.455H4.094a.456.456,0,0,0-.455.455V14.1a.456.456,0,0,0,.455.455H5.61A.456.456,0,0,0,6.065,14.1Zm7.278,0V12.585a.456.456,0,0,0-.455-.455H11.372a.456.456,0,0,0-.455.455V14.1a.456.456,0,0,0,.455.455h1.516A.456.456,0,0,0,13.343,14.1Zm3.639-9.855V17.588a1.82,1.82,0,0,1-1.819,1.819H1.819A1.82,1.82,0,0,1,0,17.588V4.245A1.82,1.82,0,0,1,1.819,2.426H3.639V.455A.456.456,0,0,1,4.094,0H5.61a.456.456,0,0,1,.455.455V2.426h4.852V.455A.456.456,0,0,1,11.372,0h1.516a.456.456,0,0,1,.455.455V2.426h1.819A1.82,1.82,0,0,1,16.982,4.245ZM15.162,17.361V6.065H1.819v11.3a.228.228,0,0,0,.227.227H14.935A.228.228,0,0,0,15.162,17.361Z" fill="#ef0061"/>
</svg>
